# xmcd
#
# Track frame offsets:
# 150
# 15467
# 36371
# 57297
# 74322
# 93845
# 106290
# 119977
# 133375
# 147701
# 163255
# 178164
#
# Disc length: 2617 seconds
#
#
# Revision: 0
# Processed by: cddbd v1.4PL0 Copyright (c) Steve Scherf et al.
# Submitted via: FreeRIP 2.51 
#
DISCID=bb0a370c
DTITLE=Colt 45 - We'll meet again
DYEAR=2002
DGENRE=country
TTITLE0=Summer of '69
TTITLE1=We'll meet again
TTITLE2=All I'm living for is you
TTITLE3=But I'll always have my memories
TTITLE4=Long black veil
TTITLE5=Now I've seen what lonelyness can do
TTITLE6=Holding each other
TTITLE7=Old man Noll
TTITLE8=Ready for the times
TTITLE9=The spirit of St. Louis
TTITLE10=High horse
TTITLE11=The way I remember
EXTD=
EXTT0=
EXTT1=
EXTT2=
EXTT3=
EXTT4=
EXTT5=
EXTT6=
EXTT7=
EXTT8=
EXTT9=
EXTT10=
EXTT11=
PLAYORDER=
